#!OML:ASF H:\ManfredObstacles\Project 1\Capture day 2\Session 1\male.ASF
:FULLY-SPECIFIED
:DEGREES
401
root 0.912522 8.20416 -4.70083 -119.637 -4.63467 -183.666
lowerback 29.9246 -0.783553 3.88551
upperback 1.47528 -0.212361 -0.214502
thorax -14.1241 -0.53485 -2.21841
lowerneck -29.1015 -0.211972 5.04206
upperneck 18.7833 -2.89156 1.65611
head 10.7771 -0.727353 -0.70168
rclavicle 7.15625e-015 2.24627e-014
rhumerus 31.5181 -7.52869 -69.2343
rradius 59.5265
rwrist 29.4692
rhand -34.7328 -7.13208
rfingers 7.12502
rthumb -7.88684 -36.965
lclavicle 7.15625e-015 2.24627e-014
lhumerus 28.2648 -16.1914 67.447
lradius 39.4379
lwrist -42.4458
lhand -47.8042 26.4223
lfingers 7.12502
lthumb -20.4802 55.3621
rfemur -77.2195 -6.83787 16.4825
rtibia 133.92
rfoot -25.3644 -20.6428
rtoes -34.8484
lfemur -33.469 -17.1699 -21.0381
ltibia 83.827
lfoot 3.48731 32.9758
ltoes -18.6493
402
root 0.97563 8.22905 -4.79672 -119.415 -4.65869 -184.064
lowerback 29.7882 -0.727057 3.52694
upperback 1.46731 -0.268126 -0.284308
thorax -14.078 -0.535758 -2.07895
lowerneck -29.075 -0.27313 5.03553
upperneck 18.9133 -3.01829 1.80076
head 10.8229 -0.763204 -0.670283
rclavicle -2.38542e-015 -4.17448e-015
rhumerus 32.857 -7.58218 -69.4837
rradius 58.2088
rwrist 29.8631
rhand -33.3979 -7.25892
rfingers 7.12502
rthumb -6.59833 -37.1361
lclavicle -2.38542e-015 -4.17448e-015
lhumerus 28.0485 -16.0824 67.8155
lradius 39.1567
lwrist -42.7849
lhand -47.9485 26.2954
lfingers 7.12502
lthumb -20.6189 55.2202
rfemur -76.8616 -6.50176 16.7179
rtibia 133.393
rfoot -25.3306 -20.579
rtoes -35.0934
lfemur -33.6115 -16.2072 -20.7667
ltibia 83.3178
lfoot 3.66684 31.4197
ltoes -18.4135
403
root 1.04536 8.25325 -4.88875 -119.2 -4.72522 -184.619
lowerback 29.6684 -0.696578 3.14023
upperback 1.47149 -0.369806 -0.371035
thorax -14.0272 -0.556445 -1.92414
lowerneck -29.0114 -0.350043 5.05837
upperneck 18.9507 -3.17491 1.95515
head 10.8275 -0.812391 -0.644323
rclavicle -5.56597e-015 -5.96354e-015
rhumerus 33.9729 -7.71781 -69.7615
rradius 56.9322
rwrist 30.4331
rhand -32.1629 -7.39639
rfingers 7.12502
rthumb -5.40606 -37.3074
lclavicle -5.56597e-015 -5.96354e-015
lhumerus 27.8886 -16.0418 68.1496
lradius 38.8662
lwrist -43.132
lhand -48.0964 26.1956
lfingers 7.12502
lthumb -20.761 55.1049
rfemur -76.4981 -6.39376 16.8552
rtibia 132.858
rfoot -25.4337 -20.3048
rtoes -35.315
lfemur -33.8273 -15.3457 -20.5303
ltibia 82.8971
lfoot 3.87233 29.7461
ltoes -18.14
404
root 1.11945 8.27618 -4.97462 -118.966 -4.83164 -185.3
lowerback 29.5419 -0.703854 2.77284
upperback 1.48458 -0.517998 -0.483001
thorax -13.9645 -0.600188 -1.78903
lowerneck -28.9142 -0.441285 5.07848
upperneck 18.8771 -3.35145 2.14502
head 10.7859 -0.870299 -0.607465
rclavicle -1.27222e-014 -7.95139e-015
rhumerus 34.9 -7.89333 -70.0536
rradius 55.6551
rwrist 31.0696
rhand -31.1505 -7.53217
rfingers 7.12502
rthumb -4.42846 -37.4659
lclavicle -1.27222e-014 -7.95139e-015
lhumerus 27.7989 -16.0694 68.4005
lradius 38.5793
lwrist -43.4365
lhand -48.245 26.0997
lfingers 7.12502
lthumb -20.9038 54.9934
rfemur -76.1835 -6.47722 16.9121
rtibia 132.337
rfoot -25.6498 -19.915
rtoes -35.5647
lfemur -34.168 -14.6103 -20.3183
ltibia 82.5993
lfoot 4.04995 28.0115
ltoes -17.8013
405
root 1.19675 8.29873 -5.05554 -118.745 -4.97735 -186.04
lowerback 29.4592 -0.732903 2.45654
upperback 1.50493 -0.680655 -0.615406
thorax -13.913 -0.655412 -1.69777
lowerneck -28.8116 -0.555663 5.09707
upperneck 18.7316 -3.55643 2.34571
head 10.717 -0.94245 -0.570706
rclavicle 8.74653e-015 -3.18055e-015
rhumerus 35.6443 -8.08763 -70.3205
rradius 54.354
rwrist 31.7045
rhand -30.4858 -7.64362
rfingers 7.12502
rthumb -3.78663 -37.5897
lclavicle 8.74653e-015 -3.18055e-015
lhumerus 27.7769 -16.1852 68.5683
lradius 38.2894
lwrist -43.6915
lhand -48.3963 26.0105
lfingers 7.12502
lthumb -21.0492 54.8881
rfemur -75.8625 -6.61702 16.9404
rtibia 131.816
rfoot -25.9085 -19.5884
rtoes -35.8395
lfemur -34.5852 -13.9427 -20.1024
ltibia 82.423
lfoot 4.15797 26.2382
ltoes -17.4502
406
root 1.27558 8.32177 -5.13287 -118.532 -5.15916 -186.799
lowerback 29.4211 -0.797478 2.21431
upperback 1.52166 -0.868111 -0.772114
thorax -13.8873 -0.727984 -1.66311
lowerneck -28.7068 -0.672345 5.12115
upperneck 18.5394 -3.76492 2.55327
head 10.6311 -1.0171 -0.53259
rclavicle 2.22639e-014 5.36719e-015
rhumerus 36.2325 -8.23487 -70.5877
rradius 53.0168
rwrist 32.3147
rhand -30.3425 -7.69768
rfingers 7.12502
rthumb -3.64824 -37.6462
lclavicle 2.22639e-014 5.36719e-015
lhumerus 27.7784 -16.3338 68.6449
lradius 38.0067
lwrist -43.92
lhand -48.5392 25.9259
lfingers 7.12502
lthumb -21.1865 54.7882
rfemur -75.5338 -6.74788 16.9647
rtibia 131.284
rfoot -26.1664 -19.349
rtoes -36.0632
lfemur -35.0808 -13.3093 -19.8645
ltibia 82.3666
lfoot 4.20654 24.4377
ltoes -17.0649
